HIERARCHY
ROOT Hips
{
	OFFSET -3.958830 18.904000 13.208200
	CHANNELS 6 Xposition Yposition Zposition Zrotation Yrotation Xrotation 
	JOINT LHipJoint
	{
		OFFSET 0.000000 0.000000 0.000000
		CHANNELS 3 Zrotation Yrotation Xrotation
		JOINT LeftUpLeg
		{
			OFFSET 1.800000 -1.400000 0.085000
			CHANNELS 3 Zrotation Yrotation Xrotation
			JOINT LeftLeg
			{
				OFFSET 2.215000 -6.000000 0.000000
				CHANNELS 3 Zrotation Yrotation Xrotation
				JOINT LeftFoot
				{
					OFFSET 2.500000 -6.900000 0.000000
					CHANNELS 3 Zrotation Yrotation Xrotation
					JOINT LeftToeBase
					{
						OFFSET 0.200000 -0.500000 1.950000
						CHANNELS 3 Zrotation Yrotation Xrotation
						End Site
						{
							OFFSET 0.000000 0.000000 0.000000
						}
					}
				}
			}
		}
	}
	JOINT RHipJoint
	{
		OFFSET 0.000000 0.000000 0.000000
		CHANNELS 3 Zrotation Yrotation Xrotation
		JOINT RightUpLeg
		{
			OFFSET -1.800000 -1.400000 0.085000
			CHANNELS 3 Zrotation Yrotation Xrotation
			JOINT RightLeg
			{
				OFFSET -2.215000 -6.000000 0.000000
				CHANNELS 3 Zrotation Yrotation Xrotation
				JOINT RightFoot
				{
					OFFSET -2.500000 -6.900000 0.000000
					CHANNELS 3 Zrotation Yrotation Xrotation
					JOINT RightToeBase
					{
						OFFSET -0.200000 -0.500000 1.950000
						CHANNELS 3 Zrotation Yrotation Xrotation
						End Site
						{
							OFFSET 0.000000 0.000000 0.000000
						}
					}
				}
			}
		}
	}
	JOINT LowerBack
	{
		OFFSET 0.000000 0.000000 0.000000
		CHANNELS 3 Zrotation Yrotation Xrotation
		JOINT Spine
		{
			OFFSET -0.087000 1.940000 -0.288900
			CHANNELS 3 Zrotation Yrotation Xrotation
			JOINT Spine1
			{
				OFFSET 0.000000 1.950000 0.060000
				CHANNELS 3 Zrotation Yrotation Xrotation
				JOINT Neck
				{
					OFFSET 0.000000 0.000000 0.000000
					CHANNELS 3 Zrotation Yrotation Xrotation
					JOINT Neck1
					{
						OFFSET 0.000000 1.600000 0.340000
						CHANNELS 3 Zrotation Yrotation Xrotation
						JOINT Head
						{
							OFFSET 0.000000 1.667000 -0.240000
							CHANNELS 3 Zrotation Yrotation Xrotation
							End Site
							{
								OFFSET 0.000000 0.000000 0.000000
							}
						}
					}
				}
				JOINT LeftShoulder
				{
					OFFSET 0.000000 0.000000 0.000000
					CHANNELS 3 Zrotation Yrotation Xrotation
					JOINT LeftArm
					{
						OFFSET 2.700000 1.550000 -0.730000
						CHANNELS 3 Zrotation Yrotation Xrotation
						JOINT LeftForeArm
						{
							OFFSET 5.450000 0.000000 0.000000
							CHANNELS 3 Zrotation Yrotation Xrotation
							JOINT LeftHand
							{
								OFFSET 3.450000 0.000000 0.000000
								CHANNELS 3 Zrotation Yrotation Xrotation
								JOINT LeftHandIndex1
								{
									OFFSET 0.750000 0.000000 0.000000
									CHANNELS 3 Zrotation Yrotation Xrotation
									End Site
									{
										OFFSET 0.000000 0.000000 0.000000
									}
								}
							}
						}
					}
				}
				JOINT RightShoulder
				{
					OFFSET 0.000000 0.000000 0.000000
					CHANNELS 3 Zrotation Yrotation Xrotation
					JOINT RightArm
					{
						OFFSET -2.700000 1.550000 -0.730000
						CHANNELS 3 Zrotation Yrotation Xrotation
						JOINT RightForeArm
						{
							OFFSET -5.450000 0.000000 0.000000
							CHANNELS 3 Zrotation Yrotation Xrotation
							JOINT RightHand
							{
								OFFSET -3.450000 0.000000 0.000000
								CHANNELS 3 Zrotation Yrotation Xrotation
								JOINT RightHandIndex1
								{
									OFFSET -0.750000 0.000000 0.000000
									CHANNELS 3 Zrotation Yrotation Xrotation
									End Site
									{
										OFFSET 0.000000 0.000000 0.000000
									}
								}
							}
						}
					}
				}
			}
		}
	}
}
MOTION
Frames: 14
Frame Time: 0.016667
-1.115820 17.911530 2.477660 1.751943 -5.368014 -5.993811 -15.649331 10.487549 6.713538 13.323383 -9.049148 -54.881686 -7.909370 24.344695 74.934046 1.806626 15.513018 -0.529782 0.003450 -0.196580 -0.099340 18.282158 -9.819332 1.891591 -0.348741 -0.865223 -1.615089 3.027928 -5.276749 16.544270 -0.276273 -4.084836 3.074972 -0.019890 0.406980 0.027880 -2.973426 -0.736434 -9.151776 2.390693 5.196857 20.420548 -3.226874 8.132444 4.526639 2.607143 -4.176924 -8.830212 -11.000301 7.093779 52.704306 2.317140 -1.284860 0.051140 -24.903858 -3.873914 1.940843 -47.241597 -2.900189 -7.387596 -17.255717 -47.683188 4.542098 -3.724256 2.974647 0.407040 0.121690 -0.166660 0.075890 19.481951 11.772030 4.687783 30.962894 11.408083 -6.682041 31.542441 64.501865 16.619947 2.093848 -1.511373 -0.326100 0.358430 0.274650 -0.087280 
-1.116560 17.948770 2.410770 2.221665 -5.223570 -6.281094 -15.699329 10.417922 6.864744 14.130945 -9.594648 -55.580131 -8.896846 25.528823 76.117511 1.918057 15.910286 -0.618394 0.002830 -0.195060 -0.100540 18.253875 -9.714807 1.832731 -0.897790 -0.926988 -1.505972 3.342652 -5.320408 15.899094 -0.275236 -4.053663 3.089105 -0.019870 0.406580 0.023540 -2.869558 -0.912643 -9.214977 1.589315 5.058218 20.882756 -2.958963 7.970342 4.565616 2.487305 -4.148082 -8.990176 -11.257949 7.161967 52.876824 2.530680 -1.181490 -0.092090 -25.047802 -4.453649 2.032211 -46.981174 -3.438184 -7.395503 -17.405429 -49.035168 4.736040 -3.716201 2.976650 0.416580 0.117560 -0.162060 0.076830 19.928761 12.236846 4.980495 30.751082 10.557797 -7.124727 31.496879 64.372632 16.440255 2.090230 -1.503242 -0.330540 0.365820 0.275580 -0.089240 
-1.115850 17.981700 2.343350 2.728577 -5.133847 -6.542172 -15.752583 10.343809 7.010789 14.876545 -10.180064 -56.378370 -9.819692 26.656900 77.266952 2.025635 16.282858 -0.700931 0.010380 -0.182480 -0.091950 18.224497 -9.604748 1.780213 -1.419715 -1.020582 -1.274592 3.574301 -5.315846 15.027399 -0.277957 -4.017515 3.104188 -0.014470 0.397370 0.019550 -2.759338 -1.089578 -9.272531 0.692642 4.957432 21.304219 -2.624189 7.810712 4.642632 2.378088 -4.113985 -9.092915 -11.469033 7.164571 52.913307 2.498960 -0.959100 -0.420650 -25.128634 -4.950425 2.084721 -46.713048 -4.059245 -7.337446 -17.659239 -50.290369 4.984651 -3.706764 2.980364 0.424000 0.111740 -0.153120 0.076760 20.295066 12.633585 5.210728 30.587503 9.904475 -7.440861 31.534561 64.039797 16.265567 2.088595 -1.497628 -0.330490 0.369520 0.269700 -0.093170 
-1.112230 18.012570 2.275570 3.136663 -5.112744 -6.797266 -15.797679 10.262728 7.151815 15.771076 -10.635138 -57.112688 -10.946291 27.896354 78.121456 2.134049 16.640764 -0.774562 0.017940 -0.173550 -0.078070 18.202368 -9.502643 1.733956 -1.908634 -1.092432 -1.081738 3.834032 -5.314404 14.213972 -0.282030 -3.988935 3.114879 -0.012030 0.390340 0.019240 -2.671618 -1.232635 -9.331037 0.030511 4.892244 21.704665 -2.350862 7.715191 4.712511 2.293053 -4.004890 -9.148122 -11.514395 7.067412 53.003194 2.394510 -0.725230 -0.598890 -25.303484 -5.425683 2.077489 -46.259547 -4.805956 -7.148324 -18.084211 -51.254255 5.311926 -3.703511 2.984187 0.428180 0.108570 -0.144880 0.076530 20.680054 12.938453 5.419176 30.391821 9.225700 -7.722399 31.488501 63.640505 16.036087 2.089103 -1.495341 -0.328700 0.371110 0.262160 -0.096840 
-1.109880 18.030660 2.207860 3.699059 -5.093676 -6.856903 -15.849602 10.174695 7.286855 16.463615 -11.191217 -58.065111 -11.872964 29.014355 79.028410 2.241267 16.977311 -0.841959 0.028520 -0.158580 -0.065330 18.176382 -9.398639 1.683553 -2.463527 -1.128236 -0.995377 4.054078 -5.270178 13.272279 -0.280960 -3.952022 3.127792 -0.006050 0.381590 0.021460 -2.567879 -1.368616 -9.372619 -0.934945 4.932897 21.833152 -2.002515 7.616324 4.825114 2.175650 -3.848821 -9.125241 -11.378532 6.865537 52.682264 2.213220 -0.430480 -0.796490 -25.231090 -5.768301 2.030367 -45.854088 -5.693125 -6.843536 -18.622416 -52.055507 5.716077 -3.703422 2.997963 0.424520 0.108290 -0.138520 0.077710 20.901683 13.081717 5.553138 30.501330 8.726928 -7.895420 31.282038 63.119979 15.684273 2.088728 -1.499712 -0.322300 0.365790 0.251840 -0.098860 
-1.100740 18.041460 2.143850 4.028719 -5.277358 -6.906327 -15.876996 10.099652 7.398543 17.218748 -11.566142 -58.719463 -12.767842 30.038321 79.685260 2.330464 17.261118 -0.895462 0.039220 -0.147480 -0.054680 18.167485 -9.324529 1.646687 -2.886902 -1.136213 -1.026667 4.272257 -5.251265 12.643840 -0.281083 -3.928388 3.136021 -0.001020 0.376120 0.024650 -2.524055 -1.451685 -9.416240 -1.276052 4.834411 21.984483 -1.922383 7.494561 4.849432 2.105640 -3.812066 -9.108084 -11.460790 6.774225 52.323578 2.005980 -0.169900 -0.881530 -25.350773 -6.073121 1.956710 -45.370343 -6.452504 -6.573517 -18.991671 -52.799695 6.043881 -3.702524 3.012403 0.423000 0.108940 -0.135080 0.081820 21.165914 13.226122 5.689162 30.523314 8.253353 -7.972132 31.391544 62.424664 15.478073 2.088670 -1.507383 -0.318350 0.360530 0.242280 -0.101430 
-1.088750 18.047310 2.082570 4.185730 -5.642301 -7.077310 -15.884220 10.058577 7.471476 17.998541 -11.721575 -58.802149 -13.770043 31.020955 79.949660 2.390818 17.479189 -0.946122 0.054220 -0.131960 -0.038710 18.168403 -9.273453 1.629016 -3.191758 -1.157463 -1.002827 4.446458 -5.240810 12.147183 -0.290515 -3.907861 3.135228 0.007760 0.361490 0.029800 -2.522534 -1.520546 -9.457238 -1.204179 4.599186 22.358748 -2.044828 7.345197 4.794732 2.055226 -3.969289 -9.105857 -11.947236 6.945514 52.028980 1.848050 0.133150 -1.459680 -25.628365 -6.288890 1.857135 -44.837214 -6.969404 -6.453324 -19.261623 -53.727871 6.321732 -3.695441 3.023017 0.433710 0.100340 -0.121650 0.080920 21.500057 13.394112 5.817417 30.489311 7.831508 -8.034255 31.796408 61.679590 15.425032 2.090752 -1.506648 -0.314790 0.357530 0.236210 -0.107620 
-1.073330 18.049250 2.023510 4.348513 -6.170883 -7.316788 -15.886298 10.062002 7.505548 18.584588 -11.810160 -58.421987 -14.706265 31.870651 79.999887 2.431508 17.645980 -0.989613 0.066200 -0.122810 -0.023140 18.164217 -9.242152 1.613549 -3.553740 -1.146425 -1.048978 4.706819 -5.288738 11.934753 -0.299219 -3.899725 3.130207 0.012640 0.348580 0.038020 -2.519125 -1.605829 -9.482020 -1.095788 4.381533 22.787285 -2.096280 7.229086 4.699461 2.005499 -4.194832 -9.128545 -12.607207 7.237027 51.878152 1.670730 0.445690 -2.096250 -25.951779 -6.456614 1.746767 -44.437080 -7.423949 -6.372233 -19.387239 -54.491654 6.480750 -3.692543 3.025171 0.450100 0.092860 -0.108030 0.075920 21.880883 13.581212 5.976806 30.355385 7.292719 -8.147708 32.275885 60.937458 15.403899 2.090240 -1.500711 -0.312740 0.355400 0.236020 -0.116060 
-1.053640 18.044670 1.966980 4.471773 -6.793294 -7.505998 -15.875624 10.085689 7.514360 19.016604 -11.834522 -57.708425 -15.713608 32.653756 79.752790 2.463963 17.761224 -1.018616 0.073390 -0.113940 -0.014160 18.165286 -9.237789 1.598079 -3.884634 -1.101110 -1.283801 4.961398 -5.360386 12.038177 -0.302623 -3.890696 3.127084 0.018150 0.339600 0.040970 -2.539576 -1.661700 -9.492748 -0.781379 4.129970 23.168596 -2.263375 7.109081 4.544177 1.975144 -4.448851 -9.099246 -13.296747 7.551268 51.645330 1.479650 0.750930 -2.650490 -26.365229 -6.464450 1.582048 -44.011711 -7.766859 -6.282085 -19.839879 -55.183213 6.812207 -3.692036 3.026352 0.461550 0.087050 -0.097490 0.072590 22.288710 13.603601 6.076993 30.202240 6.730535 -8.198981 32.920232 60.114026 15.444797 2.092704 -1.494187 -0.312900 0.358020 0.236580 -0.121470 
-1.033370 18.030470 1.917130 4.483276 -7.541088 -7.543334 -15.855247 10.117997 7.499329 19.312130 -11.778896 -56.803309 -16.492390 33.273994 79.507925 2.491587 17.838138 -1.037533 0.083570 -0.101060 -0.006780 18.173478 -9.254394 1.584228 -4.046412 -1.024760 -1.751477 5.163493 -5.435536 12.419768 -0.299694 -3.877375 3.127269 0.024760 0.332310 0.046430 -2.582367 -1.676851 -9.485641 -0.243243 3.868477 23.283008 -2.451944 6.975601 4.416377 1.945276 -4.707417 -8.994664 -13.916607 7.838946 51.256107 1.243060 1.062430 -3.020360 -26.613133 -6.185352 1.369663 -43.842108 -8.092979 -6.092033 -20.715969 -55.877618 7.391904 -3.695601 3.038141 0.464570 0.085920 -0.090830 0.072430 22.516326 13.329382 6.050152 30.273939 6.327350 -8.098709 33.675353 59.077215 15.483418 2.097246 -1.494721 -0.308060 0.354420 0.233360 -0.124070 
-1.012930 18.014840 1.872740 4.312599 -8.387979 -7.474888 -15.815003 10.173806 7.437357 19.421618 -11.578202 -55.477870 -16.888847 33.470282 79.063773 2.490057 17.804264 -1.033174 0.093290 -0.086580 -0.000900 18.194443 -9.309431 1.587218 -3.908509 -0.939099 -2.403896 5.109601 -5.460032 13.000006 -0.293807 -3.845944 3.134237 0.030340 0.326040 0.051900 -2.668158 -1.628277 -9.459733 0.666488 3.581399 23.190382 -2.829064 6.851951 4.320557 1.974260 -4.881307 -8.892864 -14.322344 8.058638 51.044186 0.984360 1.399490 -3.237480 -26.830511 -5.866453 1.152546 -43.783205 -8.431349 -5.866597 -21.605818 -56.334122 7.967521 -3.700245 3.048486 0.464740 0.086380 -0.084020 0.074120 22.576477 12.925883 5.994765 30.800097 5.995257 -7.998019 34.026683 57.833455 15.217884 2.100910 -1.492970 -0.301270 0.349740 0.228140 -0.124630 
-0.993360 17.996440 1.828550 4.192241 -9.088462 -7.300936 -15.778173 10.233456 7.374215 19.465383 -11.482280 -54.168589 -17.312373 33.626554 78.563404 2.490927 17.763787 -1.023061 0.095950 -0.077700 -0.002780 18.212784 -9.364024 1.581983 -3.759545 -0.823840 -3.232761 4.975953 -5.473025 13.713995 -0.279532 -3.805693 3.147675 0.033770 0.326480 0.053690 -2.743423 -1.592252 -9.422988 1.425965 3.254782 22.904010 -3.153614 6.616966 4.303456 1.989576 -4.995527 -8.807750 -14.590023 8.290276 50.877446 0.760370 1.782690 -3.189530 -26.795368 -5.536177 0.972957 -43.892740 -8.847302 -5.594742 -22.405672 -56.693848 8.495149 -3.709255 3.056020 0.459440 0.091560 -0.083160 0.077470 22.443522 12.433926 5.918373 31.631495 5.744351 -7.877354 34.482099 56.724859 15.017587 2.105010 -1.490703 -0.297660 0.347810 0.225340 -0.123280 
-0.975760 17.981150 1.782610 4.174772 -9.743052 -7.158459 -15.746780 10.321760 7.290725 19.351665 -11.443043 -52.673212 -17.660954 33.678654 78.024186 2.494748 17.695500 -1.006499 0.107760 -0.059610 0.002570 18.222074 -9.418624 1.575542 -3.626435 -0.702480 -4.103803 4.690144 -5.441946 14.444963 -0.267138 -3.753826 3.160903 0.039080 0.320040 0.058160 -2.794710 -1.597141 -9.373040 1.928095 2.946673 22.620535 -3.314830 6.339081 4.321796 1.941614 -5.131517 -8.741276 -14.967818 8.601704 50.811983 0.685850 2.140650 -3.129890 -26.736617 -5.247857 0.842429 -44.072261 -9.276416 -5.372077 -23.033458 -57.206883 8.945562 -3.708584 3.073385 0.452750 0.091150 -0.076880 0.083080 22.440356 12.008765 5.843728 32.460727 5.519687 -7.792053 34.815407 55.630855 14.750520 2.114562 -1.495602 -0.286370 0.338700 0.214180 -0.119490 
-0.958910 17.963820 1.740100 4.012762 -10.399421 -6.867633 -15.706537 10.420715 7.184691 19.230801 -11.331114 -50.964802 -17.921253 33.571825 77.330368 2.487430 17.581630 -0.974058 0.108970 -0.050900 -0.003560 18.239521 -9.476392 1.582395 -3.253199 -0.573260 -5.096966 4.245446 -5.351682 15.174472 -0.244689 -3.689841 3.184572 0.040700 0.325480 0.055770 -2.869065 -1.596072 -9.313363 2.664069 2.531664 22.146896 -3.524888 5.959840 4.344287 1.884380 -5.323231 -8.659394 -15.432550 8.951293 50.552926 0.545730 2.508440 -2.690620 -26.691327 -4.925284 0.735026 -44.234217 -9.633576 -5.122069 -23.809556 -57.795379 9.507246 -3.714954 3.090928 0.437080 0.098990 -0.083810 0.089590 22.460456 11.531944 5.732670 33.210208 5.346325 -7.600569 35.351279 54.373405 14.538168 2.124555 -1.502482 -0.280790 0.333910 0.207770 -0.113440 
